<?xml version="1.0" standalone="no"?><!DOCTYPE svg PUBLIC "-//W3C//DTD SVG 1.1//EN" "http://www.w3.org/Graphics/SVG/1.1/DTD/svg11.dtd"><svg t="1728127188166" class="icon" viewBox="0 0 1024 1024" version="1.1" xmlns="http://www.w3.org/2000/svg" p-id="1556" xmlns:xlink="http://www.w3.org/1999/xlink" width="200" height="200"><path d="M516.6592 513.9456m-436.6848 0a436.6848 436.6848 0 1 0 873.3696 0 436.6848 436.6848 0 1 0-873.3696 0Z" fill="#AD9DFF" p-id="1557"></path><path d="M83.3536 567.1936a433.3056 383.4368 0 1 0 866.6112 0 433.3056 383.4368 0 1 0-866.6112 0Z" fill="#9F89FF" p-id="1558"></path><path d="M93.1328 620.3904a423.5264 330.24 0 1 0 847.0528 0 423.5264 330.24 0 1 0-847.0528 0Z" fill="#8C6CFA" p-id="1559"></path><path d="M110.2336 673.6384a406.4256 276.992 0 1 0 812.8512 0 406.4256 276.992 0 1 0-812.8512 0Z" fill="#805AF9" p-id="1560"></path><path d="M135.424 726.8352a381.2352 223.7952 0 1 0 762.4704 0 381.2352 223.7952 0 1 0-762.4704 0Z" fill="#764BF6" p-id="1561"></path><path d="M345.7024 748.1856A63.1808 63.1808 0 0 1 286.72 661.9648l96.1024-245.76a63.488 63.488 0 0 1 35.84-35.84l245.76-96.1024a63.232 63.232 0 0 1 81.92 81.92l-95.5904 245.9136a63.2832 63.2832 0 0 1-35.84 35.84L368.64 743.8848a63.6416 63.6416 0 0 1-22.9376 4.3008z m110.5408-294.656L378.88 652.0832l198.7584-77.3632 77.4144-198.8096z" fill="#FFFFFF" p-id="1562"></path></svg>